<?xml version="1.0" encoding="UTF-8" standalone="no"?>
<svg
   xmlns:dc="http://purl.org/dc/elements/1.1/"
   xmlns:cc="http://creativecommons.org/ns#"
   xmlns:rdf="http://www.w3.org/1999/02/22-rdf-syntax-ns#"
   xmlns:svg="http://www.w3.org/2000/svg"
   xmlns="http://www.w3.org/2000/svg"
   id="svg1456"
   version="1.1"
   viewBox="0 0 62.920097 62.920097"
   height="21mm"
   width="21mm">
  <defs
     id="defs1450" />
  <metadata
     id="metadata1453">
    <rdf:RDF>
      <cc:Work
         rdf:about="">
        <dc:format>image/svg+xml</dc:format>
        <dc:type
           rdf:resource="http://purl.org/dc/dcmitype/StillImage" />
        <dc:title></dc:title>
      </cc:Work>
    </rdf:RDF>
  </metadata>
  <g
     transform="translate(-25.992334,-14.563761)"
     id="layer1">
    <path
       id="path3"
       d="m 40.613438,19.458542 c -5.04404,3.2426 -8.41026,7.65027 -11.15746,13.75265 -4.51781,13.4766 -2.3902,24.556993 3.75915,32.502854 5.69856,7.36337 14.24691,12.109669 26.516,11.75078 5.426845,0 10.065883,-1.778812 13.916465,-3.21996 7.22608,-3.843811 10.812552,-7.165412 13.758333,-13.56713 h -3.070614 c -1.981586,2.83727 -5.891226,6.30473 -9.876917,8.286319 -3.985691,1.981581 -8.399664,3.501591 -14.299385,3.501591 -10.378392,0.838189 -17.705172,-3.665101 -22.521542,-10.26537 -6.17317,-8.459645 -7.88216,-19.834995 -2.97974,-28.352944 2.40943,-4.6162 5.25757,-8.15161 9.60355,-10.60607 8.92604,-4.40859 18.735515,-4.97805 27.089297,-0.7767 2.9258,1.66751 5.336461,3.67688 7.182858,5.98768 2.787338,3.4884 4.288772,7.66373 4.335302,12.38691 -0.104622,11.68837 -12.221433,25.316983 -25.299009,23.012883 -0.704953,-0.298929 -0.565647,-0.517861 -0.471159,-0.63482 L 75.949261,41.957941 c 0.637117,-0.949669 -0.421679,-0.840769 -0.421679,-0.840769 H 58.259384 c -0.842354,0 -0.842325,-0.84129 -0.842325,-0.84129 2.527088,-5.88698 4.50039,-11.4034 6.606315,-16.86988 0.01413,-0.72461 -0.652468,-0.79359 -1.131197,-0.37042 L 41.411838,46.583501 c -0.72254,0.663911 -0.70224,1.524082 0,1.68207 h 17.689873 c 0.457999,0.194292 0.42367,0.782442 0,1.68207 l -6.378943,13.646714 c -0.85745,2.846871 3.390866,3.040591 4.754404,3.571179 8.643998,1.09134 17.144926,-2.890568 23.103329,-8.96207 4.593678,-5.066551 7.286895,-10.732802 7.286895,-17.263022 0,-4.57117 -1.092036,-8.80439 -3.276285,-12.70001 -9.229381,-14.88895 -30.286633,-17.30826 -43.977673,-8.78189 z"
       style="fill:#F7931A;stroke-width:0.26458332" />
  </g>
</svg>
